<?xml version="1.0" standalone="no"?>
<!DOCTYPE svg PUBLIC "-//W3C//DTD SVG 20010904//EN"
 "http://www.w3.org/TR/2001/REC-SVG-20010904/DTD/svg10.dtd">
<svg version="1.0" xmlns="http://www.w3.org/2000/svg"
 width="500.000000pt" height="498.000000pt" viewBox="0 0 500.000000 498.000000"
 preserveAspectRatio="xMidYMid meet">

<g transform="translate(0.000000,498.000000) scale(0.100000,-0.100000)"
fill="#000000" stroke="none">
<path d="M2365 4973 c-246 -29 -429 -68 -604 -127 -395 -135 -702 -327 -1001
-626 -404 -403 -644 -879 -737 -1460 -14 -90 -18 -170 -18 -370 1 -233 3 -269
29 -414 46 -268 119 -491 231 -718 107 -213 213 -374 368 -554 223 -258 494
-467 813 -626 l162 -80 171 4 c121 2 172 6 175 15 3 7 -1 10 -10 6 -13 -5 -18
7 -15 34 1 8 -8 12 -24 11 -24 -2 -24 -4 -9 -15 10 -7 15 -15 12 -19 -4 -3
-15 3 -26 14 -11 11 -18 23 -14 26 3 3 -6 6 -19 6 -14 0 -30 -5 -36 -11 -14
-14 -192 59 -361 147 -599 311 -1048 860 -1232 1503 -222 777 -53 1602 456
2229 30 37 103 116 162 175 396 402 888 643 1462 719 153 20 470 15 635 -11
627 -96 1161 -401 1566 -897 212 -260 406 -655 479 -977 l18 -82 1 222 1 221
-36 84 c-370 869 -1193 1475 -2128 1567 -101 10 -401 13 -471 4z"/>
<path d="M2407 4770 c-161 -12 -445 -64 -466 -85 -5 -6 4 -40 84 -305 65 -220
210 -710 284 -960 32 -108 39 -125 56 -123 11 1 61 8 110 14 107 13 223 6 325
-20 41 -11 78 -16 81 -13 6 6 55 147 292 837 156 453 178 519 174 529 -5 12
-156 56 -277 82 -199 41 -466 59 -663 44z"/>
<path d="M1866 4654 c-9 -9 -16 -11 -16 -4 0 6 -5 8 -12 3 -7 -4 -33 -15 -58
-24 -25 -9 -65 -24 -89 -33 -165 -62 -465 -242 -612 -366 -67 -57 -264 -251
-312 -308 -33 -38 -30 -45 39 -91 41 -28 84 -32 84 -9 0 6 -9 8 -21 5 -20 -5
-20 -5 -3 14 16 17 16 19 0 19 -9 0 -25 -5 -36 -12 -16 -10 -23 -9 -44 11 -28
26 -25 52 3 27 26 -23 49 -21 28 2 -24 26 -21 47 9 67 22 14 28 15 36 4 6 -9
7 -3 3 18 -6 29 -4 32 12 26 15 -6 16 -4 5 9 -10 13 -10 17 2 21 9 4 18 2 20
-2 3 -5 16 -8 30 -8 18 0 24 5 24 23 0 28 -13 31 -27 7 -5 -10 -13 -15 -16
-11 -10 10 46 59 58 51 6 -4 8 0 4 10 -7 19 1 21 35 8 19 -7 24 -6 24 9 0 10
-6 16 -13 13 -9 -4 -8 4 4 26 12 20 23 29 33 25 8 -3 11 -2 7 2 -4 4 1 13 11
20 25 19 38 17 19 -4 -11 -12 -13 -22 -6 -35 14 -24 29 -21 29 6 1 62 43 104
101 98 14 -1 31 5 39 13 15 20 -1 22 -30 4 -10 -7 -23 -8 -27 -4 -4 5 -2 11 5
14 8 2 26 17 40 33 17 20 29 26 36 19 5 -5 19 -9 30 -9 17 1 18 2 4 6 -10 2
-18 9 -18 13 0 6 11 5 26 0 33 -13 44 -12 22 1 -22 13 -24 33 -2 25 12 -5 15
-2 10 9 -3 9 -2 14 3 11 4 -3 16 3 26 14 18 20 41 28 31 11 -4 -5 7 -4 23 2
22 8 36 8 55 -1 16 -7 26 -8 26 -2 0 6 -8 10 -17 10 -15 0 -14 2 3 15 23 18
11 20 -16 3 -15 -10 -22 -10 -32 0 -9 9 -7 12 10 12 12 0 22 5 22 10 0 6 7 10
16 10 8 0 12 4 9 10 -4 6 7 8 27 4 25 -4 29 -3 18 5 -20 14 3 15 33 0 22 -10
22 -10 2 6 -17 14 -18 17 -5 25 8 5 25 10 37 10 12 0 25 5 28 10 3 6 14 10 23
10 14 -1 14 -2 -3 -12 -19 -12 -18 -13 10 -18 50 -10 79 11 34 25 -30 10 -3
26 31 19 21 -4 22 -3 5 5 -19 8 -19 9 5 15 58 15 94 14 107 -3 11 -14 12 -12
13 14 1 24 6 17 25 -37 13 -37 21 -77 19 -90 -4 -21 -4 -21 5 -3 8 16 10 12
10 -21 1 -24 7 -47 16 -54 8 -7 15 -23 15 -36 0 -12 5 -26 10 -29 6 -3 10 -19
10 -35 0 -15 6 -31 13 -34 10 -5 10 -7 0 -12 -7 -3 -13 -10 -13 -15 0 -6 4 -8
9 -5 4 3 13 -6 20 -21 24 -52 19 -14 -9 77 -16 52 -30 103 -30 113 0 11 -4 15
-12 11 -7 -4 -8 -3 -4 5 4 6 3 26 -3 44 -39 126 -66 197 -72 197 -4 0 -15 -7
-23 -16z m-426 -204 c0 -5 -5 -10 -11 -10 -5 0 -7 5 -4 10 3 6 8 10 11 10 2 0
4 -4 4 -10z"/>
<path d="M3380 4626 c0 -2 -41 -122 -91 -267 -50 -145 -97 -282 -104 -304 -14
-44 -81 -239 -198 -576 l-75 -217 83 -42 c102 -52 228 -150 286 -223 24 -31
48 -56 52 -56 5 -1 57 33 115 76 59 42 197 140 307 218 493 350 750 536 753
546 6 16 -145 196 -254 304 -178 176 -387 326 -612 439 -138 69 -262 118 -262
102z"/>
<path d="M1802 4601 c-11 -7 -11 -9 2 -14 10 -4 16 -1 16 8 0 17 -1 17 -18 6z"/>
<path d="M1760 4550 c0 -5 17 -10 38 -10 27 0 33 3 22 10 -20 13 -60 13 -60 0z"/>
<path d="M1633 4519 c6 -10 20 -19 29 -19 26 0 22 6 -11 23 -28 14 -29 14 -18
-4z"/>
<path d="M1458 4423 c7 -3 16 -2 19 1 4 3 -2 6 -13 5 -11 0 -14 -3 -6 -6z"/>
<path d="M1935 4391 c-3 -6 1 -21 10 -33 16 -23 16 -23 9 7 -8 37 -10 39 -19
26z"/>
<path d="M1410 4350 c0 -5 7 -10 15 -10 8 0 15 5 15 10 0 6 -7 10 -15 10 -8 0
-15 -4 -15 -10z"/>
<path d="M1918 4344 c-6 -26 2 -55 13 -49 12 8 11 -2 -3 -25 -14 -22 -2 -42
13 -20 10 15 3 74 -10 99 -6 10 -9 9 -13 -5z"/>
<path d="M1271 4324 c0 -11 3 -14 6 -6 3 7 2 16 -1 19 -3 4 -6 -2 -5 -13z"/>
<path d="M1956 4249 c-13 -25 -15 -47 -10 -91 7 -65 17 -73 33 -26 9 24 8 34
-1 40 -10 6 -10 8 0 8 6 0 12 11 12 25 0 14 -4 25 -10 25 -5 0 -10 -5 -10 -12
0 -6 -3 -8 -7 -5 -3 4 0 18 7 32 7 14 11 28 8 31 -3 3 -13 -9 -22 -27z"/>
<path d="M1255 4239 c-4 -6 -5 -13 -2 -16 7 -7 27 6 27 18 0 12 -17 12 -25 -2z"/>
<path d="M2006 4210 c8 -30 8 -54 0 -100 -4 -24 -3 -30 4 -20 5 8 10 23 10 32
0 9 4 19 8 22 5 3 9 -17 10 -44 0 -34 -4 -50 -14 -54 -19 -7 -18 -26 1 -26 8
0 15 7 15 15 0 21 17 19 30 -5 17 -33 29 -23 17 15 -6 19 -14 35 -18 35 -5 0
-6 6 -4 13 6 16 -19 99 -29 95 -4 -2 -14 8 -22 22 l-15 25 7 -25z"/>
<path d="M1054 4079 c-9 -15 1 -21 32 -17 l29 3 -27 12 c-18 8 -29 9 -34 2z"/>
<path d="M1965 4057 c-4 -10 -5 -21 -1 -24 10 -10 18 4 13 24 -4 17 -4 17 -12
0z"/>
<path d="M1010 4030 c0 -5 11 -10 25 -10 14 0 25 5 25 10 0 6 -11 10 -25 10
-14 0 -25 -4 -25 -10z"/>
<path d="M2084 3947 c-1 -23 1 -32 3 -19 2 12 10 22 18 22 8 0 11 7 8 20 -9
36 -28 21 -29 -23z"/>
<path d="M940 3945 c0 -14 5 -25 10 -25 6 0 10 11 10 25 0 14 -4 25 -10 25 -5
0 -10 -11 -10 -25z"/>
<path d="M2107 3927 c-3 -9 0 -29 8 -44 25 -47 15 -108 -15 -101 -7 2 -15 -4
-17 -12 -4 -12 -3 -12 5 -1 8 11 11 11 16 0 5 -11 7 -11 12 -1 3 6 10 10 15 7
5 -4 6 1 3 9 -3 9 -1 16 5 16 6 0 11 -14 11 -31 0 -17 4 -28 10 -24 6 4 7 -6
4 -24 -7 -35 3 -72 14 -54 4 6 7 -20 6 -58 0 -62 1 -67 12 -47 l13 23 1 -25
c1 -21 2 -23 11 -8 7 12 0 48 -25 130 -65 213 -82 262 -89 245z m70 -229 c-3
-8 -6 -5 -6 6 -1 11 2 17 5 13 3 -3 4 -12 1 -19z"/>
<path d="M896 3922 c-2 -4 2 -18 10 -32 l13 -25 1 33 c0 29 -12 43 -24 24z"/>
<path d="M2086 3868 c-8 -33 -6 -46 4 -23 7 17 9 16 9 -9 1 -22 4 -27 12 -19
12 12 3 73 -11 73 -4 0 -10 -10 -14 -22z"/>
<path d="M940 3845 c0 -8 -18 -23 -40 -32 -22 -10 -39 -21 -38 -25 3 -5 59
-50 191 -151 16 -12 65 -51 110 -87 45 -36 132 -104 192 -150 61 -46 121 -95
135 -107 14 -13 28 -23 32 -23 4 0 21 -13 39 -30 18 -16 35 -27 38 -23 3 3 0
8 -7 10 -10 4 -10 9 3 23 10 11 12 20 6 24 -6 4 -8 13 -4 21 3 8 0 15 -6 15
-6 0 -11 -4 -11 -10 0 -19 -35 -29 -53 -15 -18 13 -18 14 0 41 10 16 12 25 6
21 -9 -6 -13 -2 -13 12 0 12 -5 21 -11 21 -5 0 -7 -5 -4 -10 8 -13 -45 -2 -59
11 -14 12 -29 11 -21 -1 3 -5 1 -10 -4 -10 -11 0 -15 15 -12 34 1 5 -4 13 -11
17 -7 4 -9 11 -4 16 4 4 12 0 17 -10 14 -25 29 -21 27 7 -2 20 -9 26 -37 31
-21 4 -37 3 -39 -3 -4 -12 -60 4 -77 21 -7 7 -6 8 2 3 6 -3 14 -2 18 4 6 9
-14 14 -42 11 -18 -3 -16 16 2 23 18 7 21 50 3 44 -7 -3 -13 -13 -13 -23 0
-10 -6 -20 -12 -22 -7 -3 -13 0 -13 7 0 6 -8 10 -17 8 -14 -2 -17 3 -16 22 1
14 0 19 -3 13 -8 -19 -24 -16 -17 3 4 10 1 14 -8 12 -18 -3 -82 34 -70 42 5 3
12 16 16 29 6 19 4 23 -9 18 -8 -3 -18 -2 -21 3 -3 4 1 11 7 13 8 4 7 6 -3 6
-9 1 -19 -6 -23 -14 -3 -8 -12 -15 -21 -15 -18 0 -20 16 -2 24 6 3 -1 2 -17
-1 -20 -4 -27 -3 -22 6 4 7 0 11 -12 11 -20 0 -37 44 -33 83 3 21 -17 23 -26
2 -3 -9 3 -25 13 -37 18 -21 6 -18 -23 5 -15 11 7 61 32 70 19 8 20 27 0 27
-8 0 -15 -7 -15 -15z m157 -191 c-3 -3 -12 -4 -19 -1 -8 3 -5 6 6 6 11 1 17
-2 13 -5z m267 -219 c15 -11 16 -15 5 -15 -8 0 -24 7 -35 15 -14 11 -15 14 -4
14 8 0 24 -6 34 -14z m141 -94 c3 -5 1 -12 -5 -16 -5 -3 -10 1 -10 9 0 18 6
21 15 7z"/>
<path d="M2080 3715 c0 -21 4 -26 16 -21 9 3 20 6 26 6 5 0 8 6 6 13 -3 6 -9
12 -14 12 -5 0 -15 4 -21 8 -9 6 -13 0 -13 -18z"/>
<path d="M1205 3690 c3 -5 13 -10 21 -10 8 0 14 5 14 10 0 6 -9 10 -21 10 -11
0 -17 -4 -14 -10z"/>
<path d="M1190 3645 c0 -11 7 -15 23 -13 12 2 22 8 22 13 0 6 -10 11 -22 13
-16 2 -23 -2 -23 -13z"/>
<path d="M2135 3640 c-6 -10 1 -45 8 -42 4 1 12 2 17 2 6 0 10 11 10 23 0 22
-25 34 -35 17z"/>
<path d="M1120 3621 c0 -16 38 -23 57 -11 15 9 14 10 -9 5 -16 -3 -28 -1 -28
5 0 5 -4 10 -10 10 -5 0 -10 -4 -10 -9z"/>
<path d="M1234 3598 c-16 -17 -22 -27 -14 -22 8 4 24 8 35 9 13 0 21 8 23 23
5 30 -9 28 -44 -10z"/>
<path d="M2080 3621 c0 -6 5 -13 10 -16 6 -3 10 1 10 9 0 9 -4 16 -10 16 -5 0
-10 -4 -10 -9z"/>
<path d="M2230 3514 c1 -21 7 -68 15 -104 22 -98 20 -109 -15 -116 -16 -4 -27
-10 -24 -15 3 -5 -10 -16 -29 -24 -18 -7 -40 -21 -47 -30 -9 -10 -22 -14 -39
-10 -29 5 -60 -9 -47 -22 5 -4 11 -2 13 5 3 6 12 12 21 12 14 -1 14 -3 -3 -16
-11 -8 -28 -13 -38 -10 -9 2 -14 0 -11 -6 10 -16 -25 -46 -49 -41 -13 3 -17 1
-11 -4 9 -6 8 -11 -2 -21 -8 -7 -14 -8 -14 -2 0 5 -5 10 -11 10 -6 0 -8 -9 -4
-21 5 -14 3 -19 -3 -15 -6 3 -13 -3 -17 -14 -3 -11 -15 -20 -25 -20 -13 0 -17
-5 -14 -15 7 -17 -4 -19 -25 -6 -7 5 -11 14 -7 20 4 6 2 9 -7 5 -16 -6 -18 37
-2 48 6 4 2 8 -7 8 -10 0 -18 -4 -18 -10 0 -5 -4 -10 -10 -10 -5 0 -7 7 -4 15
7 18 -17 20 -34 3 -16 -16 -16 4 1 21 10 11 9 13 -1 7 -7 -4 -21 -4 -33 -1
-16 5 -18 10 -9 20 13 15 6 35 -12 35 -7 0 -6 -5 1 -14 25 -29 -9 -26 -43 5
-20 17 -40 29 -46 27 -6 -2 23 -30 65 -63 42 -33 82 -66 90 -73 8 -7 20 -10
26 -6 7 4 9 3 5 -4 -3 -6 10 -23 29 -38 l36 -27 52 50 c107 102 241 188 349
222 32 11 36 15 32 38 -6 32 -65 236 -70 242 -2 2 -4 -13 -4 -35z m27 -96 c-3
-8 -6 -5 -6 6 -1 11 2 17 5 13 3 -3 4 -12 1 -19z m19 -135 c-10 -10 -19 5 -10
18 6 11 8 11 12 0 2 -7 1 -15 -2 -18z"/>
<path d="M1410 3530 c0 -5 7 -10 15 -10 8 0 15 5 15 10 0 6 -7 10 -15 10 -8 0
-15 -4 -15 -10z"/>
<path d="M1337 3513 c-15 -15 -6 -33 17 -33 23 0 41 22 29 34 -8 8 -38 8 -46
-1z"/>
<path d="M1568 3341 c-16 -9 -28 -22 -28 -28 0 -18 11 -16 38 7 32 26 24 40
-10 21z"/>
<path d="M2190 3340 l-25 -6 22 -12 c29 -16 53 -15 53 2 0 18 -19 24 -50 16z"/>
<path d="M2085 3330 c3 -5 10 -10 16 -10 5 0 9 5 9 10 0 6 -7 10 -16 10 -8 0
-12 -4 -9 -10z"/>
<path d="M2445 3234 c-11 -3 -40 -9 -65 -15 -297 -71 -538 -312 -617 -618 -22
-86 -24 -110 -20 -231 9 -245 90 -428 263 -589 118 -111 244 -176 407 -213 74
-16 113 -19 202 -14 140 7 215 26 340 86 173 84 297 206 381 375 57 115 83
213 90 345 22 388 -229 736 -612 851 -52 16 -104 22 -209 24 -77 2 -149 2
-160 -1z m314 -200 c105 -23 109 -29 61 -89 l-39 -50 162 -3 c89 -1 165 -6
169 -10 15 -15 -21 -165 -57 -240 -23 -48 -53 -91 -88 -126 -56 -54 -173 -121
-265 -151 -28 -9 -50 -21 -46 -26 3 -5 108 -9 240 -9 l234 0 0 -60 0 -60 -224
0 c-139 0 -227 -4 -231 -10 -10 -16 64 -78 130 -109 60 -29 170 -56 277 -67
l57 -5 -42 -80 -42 -80 -52 4 c-68 7 -210 57 -279 98 -30 19 -78 55 -106 81
l-51 47 -26 -33 c-61 -78 -183 -145 -324 -178 l-91 -21 -15 24 c-9 13 -33 43
-55 66 -26 29 -34 44 -25 46 8 3 55 12 104 21 50 9 122 32 162 51 71 33 157
107 150 129 -2 7 -73 12 -215 14 l-212 2 0 60 c0 55 2 60 23 60 12 0 110 2
217 3 l194 2 6 25 c5 22 12 25 58 28 29 2 52 7 52 11 0 5 -9 20 -20 34 -23 29
-25 37 -7 37 25 0 157 43 157 52 0 5 -18 28 -40 52 l-40 43 55 43 56 43 52
-51 52 -51 31 42 c25 34 54 95 54 113 0 2 -51 4 -113 4 l-113 0 -58 -70 c-81
-97 -79 -96 -121 -71 -20 12 -40 21 -46 21 -5 0 -9 -50 -9 -115 l0 -116 -77 3
-78 3 -3 63 c-2 34 -5 62 -7 62 -3 0 -41 -29 -86 -65 -45 -36 -87 -64 -93 -62
-11 3 -96 126 -96 139 0 3 17 12 38 19 47 15 163 73 214 106 l38 26 0 164 0
164 83 -3 82 -3 -3 -30 c-8 -89 -13 -257 -8 -270 5 -14 8 -14 24 2 63 62 125
162 163 261 13 34 28 62 32 62 4 0 39 -7 76 -16z m-520 -178 c11 -41 24 -81
27 -89 4 -11 -12 -21 -61 -37 -36 -12 -69 -20 -72 -16 -9 8 -73 169 -69 173 7
8 113 42 132 42 18 1 24 -11 43 -73z"/>
<path d="M1650 3216 c0 -2 9 -6 20 -9 11 -3 18 -1 14 4 -5 9 -34 13 -34 5z"/>
<path d="M1738 3208 c9 -9 15 -9 24 0 9 9 7 12 -12 12 -19 0 -21 -3 -12 -12z"/>
<path d="M1986 3211 c-3 -5 1 -11 9 -15 8 -3 15 -1 15 4 0 13 -18 22 -24 11z"/>
<path d="M1927 3184 c-10 -11 -8 -54 2 -54 14 0 25 40 14 51 -5 5 -12 6 -16 3z"/>
<path d="M3506 2339 c-33 -227 -69 -327 -166 -468 -41 -60 -49 -76 -38 -86 19
-17 391 -333 445 -377 25 -21 73 -62 106 -92 34 -29 130 -111 212 -181 83 -70
189 -160 237 -201 47 -41 88 -74 91 -74 2 0 31 35 64 78 296 382 462 816 499
1304 l7 86 -74 6 c-41 3 -299 10 -574 16 -275 5 -568 13 -652 16 l-152 7 -5
-34z"/>
<path d="M4971 1807 c-48 -207 -150 -456 -272 -662 -139 -233 -362 -493 -563
-655 -209 -169 -486 -324 -736 -413 -178 -64 -168 -61 -166 -35 1 18 -5 23
-29 25 -16 1 -25 -1 -20 -5 13 -9 17 -32 6 -32 -13 0 -32 26 -24 33 3 4 1 7
-5 7 -7 0 -12 -7 -12 -15 0 -8 6 -15 13 -15 8 0 7 -4 -3 -10 -11 -7 -6 -9 18
-6 35 4 54 -9 25 -17 -10 -3 70 -5 177 -4 l195 2 137 69 c262 130 461 271 667
471 253 246 445 522 576 826 l45 107 -2 215 -3 216 -24 -102z m-1744 -1762 c0
-8 -4 -15 -8 -15 -11 0 -20 16 -12 24 11 11 20 7 20 -9z"/>
<path d="M3219 1723 c-40 -41 -212 -163 -231 -163 -5 0 -27 -9 -51 -19 -23
-11 -59 -24 -79 -31 -26 -8 -38 -17 -38 -30 0 -10 16 -79 35 -152 20 -73 40
-153 45 -178 5 -25 18 -74 29 -110 10 -36 22 -85 26 -110 4 -25 11 -52 16 -61
4 -9 10 -28 13 -43 5 -27 118 -486 158 -645 12 -46 24 -79 26 -72 4 11 6 11
12 1 13 -21 307 85 479 173 116 59 241 136 241 148 0 5 5 9 11 9 10 0 122 77
168 115 57 48 177 162 240 228 l44 46 -34 31 c-19 16 -65 56 -102 88 -38 31
-135 114 -215 184 -111 97 -152 126 -167 122 -13 -3 -16 -2 -8 3 9 7 0 20 -34
49 -25 21 -58 49 -71 62 -14 12 -48 41 -76 65 -69 57 -153 132 -199 175 -27
25 -41 32 -48 25 -8 -8 -5 -17 9 -31 11 -11 23 -17 27 -14 3 4 3 -1 -1 -11 -4
-11 -1 -17 7 -17 8 -1 6 -6 -6 -13 -26 -15 -26 -42 0 -42 11 0 29 -8 40 -18
10 -10 25 -15 32 -13 7 3 13 1 13 -4 0 -6 -4 -10 -8 -10 -10 0 -13 -53 -6 -89
4 -18 8 -21 17 -12 17 17 26 13 19 -11 -4 -16 -2 -19 8 -13 9 5 11 4 6 -3 -4
-7 -16 -12 -27 -12 -39 0 -17 -17 29 -23 69 -8 104 1 97 24 -10 29 20 23 43
-8 17 -23 23 -26 34 -15 11 11 10 15 -2 22 -36 21 -54 39 -47 46 4 5 12 2 17
-6 5 -8 13 -15 17 -15 17 0 83 -64 83 -79 0 -6 -8 -2 -18 10 -27 32 -47 25
-50 -18 -3 -40 7 -48 28 -23 16 19 34 19 49 1 10 -12 6 -14 -20 -13 -18 1 -34
-4 -36 -10 -3 -10 11 -13 51 -13 45 0 56 3 56 16 0 11 -5 14 -17 9 -15 -5 -16
-4 -5 7 11 11 16 10 28 -7 9 -12 11 -21 4 -23 -14 -5 -13 -29 3 -35 12 -6 -32
-10 -68 -8 l-20 2 20 -13 c11 -7 43 -13 70 -14 107 -4 105 -3 105 -23 0 -11 6
-21 13 -24 9 -3 9 -7 -1 -19 -7 -9 -10 -22 -6 -31 10 -26 88 -38 97 -14 4 9 7
9 18 0 10 -10 7 -14 -20 -19 -17 -4 -30 -12 -28 -18 5 -16 48 -20 59 -4 7 10
11 10 14 1 3 -7 11 -10 17 -8 16 6 43 -12 34 -22 -5 -4 -12 -2 -16 6 -6 10
-10 9 -14 -4 -4 -10 -3 -14 4 -9 8 4 9 -1 3 -17 -5 -13 -8 -44 -8 -69 0 -39 3
-45 21 -45 12 0 24 -3 28 -7 12 -11 -22 -38 -39 -32 -14 5 -15 2 -7 -19 6 -14
6 -38 2 -54 -4 -15 -7 -36 -5 -45 3 -22 -4 -23 -26 -3 -11 10 -27 13 -48 9
-31 -6 -45 -24 -19 -24 7 0 21 -9 30 -21 18 -20 18 -21 0 -34 -10 -7 -20 -11
-23 -9 -2 3 1 9 8 13 7 4 10 15 6 24 -8 22 -11 21 -37 -6 -12 -12 -19 -18 -14
-13 4 6 7 23 7 38 0 21 -5 28 -19 28 -29 0 -45 -70 -20 -86 8 -5 8 -9 -1 -14
-8 -5 -9 -10 -2 -14 6 -3 17 1 25 9 9 8 22 15 29 15 7 0 2 -9 -12 -19 -14 -11
-27 -18 -30 -18 -3 1 -22 -15 -43 -37 -21 -21 -41 -35 -45 -31 -4 3 2 13 12
21 11 8 15 14 9 14 -7 0 -14 -4 -17 -8 -3 -5 -19 -7 -37 -4 -22 3 -27 7 -18
13 9 5 -12 9 -53 9 -54 0 -72 -4 -87 -19 -11 -11 -27 -21 -38 -23 -15 -3 -18
-12 -15 -58 3 -67 -7 -87 -36 -71 -25 13 -62 15 -62 2 0 -16 28 -33 35 -21 3
5 1 10 -6 10 -7 0 -10 2 -7 5 3 3 16 1 29 -4 17 -7 19 -10 7 -10 -10 -1 -18
-6 -18 -12 0 -7 7 -8 18 -4 41 17 54 16 22 -2 -29 -17 -37 -18 -48 -7 -7 8
-20 14 -28 14 -8 0 -14 6 -14 13 0 15 -5 17 -75 17 -81 1 -83 1 -87 -30 -3
-17 0 -26 6 -24 6 2 29 -2 51 -10 47 -17 59 -12 52 19 -3 20 -1 22 14 12 10
-6 15 -15 13 -19 -3 -4 2 -8 10 -8 9 0 16 -6 16 -14 0 -9 -7 -12 -20 -9 -13 4
-26 -1 -36 -13 -10 -14 -14 -15 -12 -4 2 10 -5 15 -19 14 -13 0 -23 3 -23 8 0
4 -9 8 -20 8 -24 0 -37 -25 -22 -43 6 -7 7 -19 3 -26 -6 -9 -11 -10 -15 -2 -9
14 -46 15 -46 1 0 -5 -11 -10 -25 -10 -26 0 -34 -15 -12 -23 6 -3 3 -6 -8 -6
-40 0 -109 36 -116 60 l-7 24 -2 -25 -2 -25 -9 25 c-8 22 -8 21 -4 -7 2 -18 1
-33 -4 -33 -11 0 -21 25 -21 50 0 10 -6 21 -12 23 -7 3 2 4 19 2 29 -3 32 -2
23 15 -12 23 -13 33 -1 26 18 -11 28 21 26 84 -3 106 -4 120 -16 120 -7 0 -9
-23 -5 -71 5 -64 4 -70 -9 -53 -14 18 -14 17 -15 -8 0 -16 -4 -28 -9 -28 -5 0
-12 -8 -14 -18 -2 -9 -2 -1 -1 18 2 19 5 54 6 78 2 48 14 56 22 15 2 -16 3 2
1 40 -1 37 2 70 7 73 9 6 3 78 -9 110 -6 15 -29 19 -37 6 -3 -5 1 -26 9 -48
17 -48 19 -100 4 -110 -6 -3 -15 0 -20 7 -5 8 -7 -15 -4 -56 6 -77 0 -78 -10
-2 -4 29 -10 45 -17 41 -5 -4 -2 5 7 19 10 16 14 35 10 49 -5 17 -4 19 4 8 5
-8 13 -11 17 -8 8 9 -3 68 -16 88 -9 13 -12 12 -23 -5 -6 -11 -15 -29 -19 -40
-5 -13 -6 -6 -4 17 3 25 0 38 -9 42 -20 7 -29 70 -18 127 6 27 6 52 2 55 -5 3
-7 17 -4 32 4 23 4 24 -4 7 -9 -19 -10 -19 -10 2 -1 12 -4 29 -8 39 -4 11 -3
15 4 11 23 -14 30 22 26 133 -2 63 -4 127 -4 141 0 15 -9 35 -19 44 -11 10
-20 25 -20 32 0 8 -6 13 -12 10 -9 -3 -12 -21 -9 -58 4 -66 7 -72 32 -59 23
13 24 3 3 -25 -8 -11 -24 -20 -37 -20 -19 0 -22 -5 -20 -40 2 -36 1 -37 -8
-15 -5 14 -8 33 -5 42 2 10 0 18 -5 18 -5 0 -3 13 6 30 8 16 15 52 15 80 0 42
-3 50 -18 50 -10 0 -23 -12 -29 -27 l-11 -28 -1 28 c-1 15 -8 30 -16 33 -11 5
-14 22 -11 77 2 40 0 61 -4 47 l-6 -25 -6 27 c-3 16 0 29 6 32 6 2 3 5 -6 5
-10 1 -18 5 -18 10 0 17 30 20 57 6 15 -8 37 -15 48 -16 l20 0 -20 -9 c-19 -8
-19 -9 3 -9 13 -1 22 5 22 14 0 8 -8 15 -17 16 -14 0 -13 2 4 9 15 6 21 15 17
25 -4 9 -1 15 7 15 7 0 21 8 31 17 15 13 21 14 27 5 5 -9 17 -11 37 -6 26 7
28 6 15 -10 -13 -15 -11 -17 22 -14 25 1 37 8 40 20 3 10 1 18 -4 18 -5 0 -7
12 -4 28 l6 27 -18 -27 c-20 -32 -28 -35 -37 -12 -4 11 -2 15 8 11 8 -3 16 2
19 14 3 10 1 17 -4 13 -5 -3 -9 0 -9 6 0 6 14 8 40 4 31 -5 41 -3 46 10 8 21
26 20 52 -4 38 -36 72 -21 49 22 -7 15 -21 23 -36 23 -13 0 -26 5 -28 11 -2 7
6 10 23 6 21 -4 26 -2 22 9 -4 10 1 15 16 16 11 0 16 -1 10 -3 -7 -3 -10 -13
-7 -24 3 -10 11 -16 18 -13 10 3 13 -4 9 -31 -5 -41 8 -46 57 -20 29 15 30 16
14 34 -9 10 -42 39 -74 64 l-58 45 -44 -46z m-34 -73 c-10 -11 -23 -20 -29
-20 -6 0 1 11 14 24 30 28 41 25 15 -4z m192 -5 c0 -8 -4 -15 -9 -15 -10 0
-11 14 -1 23 9 10 10 9 10 -8z m120 -115 c18 0 73 -54 73 -72 0 -7 -9 -19 -20
-26 -19 -12 -20 -11 -8 8 18 29 1 52 -53 70 -57 19 -56 18 -33 34 16 13 19 13
22 0 2 -8 10 -14 19 -14z m-537 -10 c0 -5 -5 -10 -11 -10 -5 0 -7 5 -4 10 3 6
8 10 11 10 2 0 4 -4 4 -10z m-37 -17 c-7 -2 -19 -2 -25 0 -7 3 -2 5 12 5 14 0
19 -2 13 -5z m742 -111 c-3 -3 -16 5 -28 17 l-22 23 28 -17 c15 -10 25 -20 22
-23z m-20 -41 c6 -27 4 -30 -11 -24 -11 4 -13 8 -6 11 8 2 7 10 -4 27 -11 16
-21 21 -37 18 -22 -6 -22 -6 -2 13 18 19 20 19 36 3 9 -9 20 -31 24 -48z
m-788 27 c-3 -8 -6 -5 -6 6 -1 11 2 17 5 13 3 -3 4 -12 1 -19z m910 -120 c-3
-8 -6 -5 -6 6 -1 11 2 17 5 13 3 -3 4 -12 1 -19z m-839 -83 c0 -15 -3 -13 -13
10 -7 17 -10 34 -7 39 7 12 21 -21 20 -49z m1022 -5 c0 -4 -6 -10 -13 -13 -7
-3 -13 3 -13 13 0 10 6 16 13 13 7 -3 13 -9 13 -13z m-1023 -62 c-3 -8 -6 -5
-6 6 -1 11 2 17 5 13 3 -3 4 -12 1 -19z m90 -10 c-3 -8 -6 -5 -6 6 -1 11 2 17
5 13 3 -3 4 -12 1 -19z m1021 -19 c21 -33 8 -32 -16 1 -12 16 -16 27 -9 25 7
-3 18 -15 25 -26z m-1038 -54 c0 -25 -4 -45 -9 -45 -5 0 -12 -8 -14 -17 -2
-10 -3 -5 -1 11 2 16 4 44 4 62 0 19 5 34 10 34 6 0 10 -20 10 -45z m30 29 c0
-8 -5 -12 -10 -9 -6 4 -8 11 -5 16 9 14 15 11 15 -7z m-73 -26 c-3 -8 -6 -5
-6 6 -1 11 2 17 5 13 3 -3 4 -12 1 -19z m1253 -97 c0 -5 -6 -11 -12 -14 -9 -3
-5 -13 11 -31 24 -25 42 -34 40 -18 -1 4 -1 16 0 27 2 19 3 18 15 -3 7 -13 23
-29 37 -35 29 -15 35 -39 15 -60 -16 -15 -56 -12 -56 4 0 5 2 9 4 9 2 0 13 3
23 6 15 5 15 4 3 -5 -13 -9 -13 -11 3 -11 10 0 20 7 24 15 7 20 5 21 -36 30
-29 6 -33 5 -28 -9 3 -8 2 -18 -4 -21 -5 -4 -9 -3 -8 2 4 22 -3 34 -17 31 -10
-2 -18 5 -20 17 -1 11 -10 25 -19 32 -14 10 -15 14 -4 27 16 17 29 20 29 7z
m25 -21 c-3 -5 -11 -10 -16 -10 -6 0 -7 5 -4 10 3 6 11 10 16 10 6 0 7 -4 4
-10z m-1222 -48 c9 -21 17 -47 16 -58 0 -17 -1 -16 -9 4 -5 12 -14 22 -19 22
-5 0 -11 16 -13 35 -5 46 4 44 25 -3z m1243 -83 c14 -16 15 -23 7 -26 -7 -3
-13 -11 -13 -19 0 -9 -5 -12 -11 -8 -8 4 -8 9 0 17 15 15 14 23 -5 41 -8 9
-11 16 -6 16 5 0 17 -10 28 -21z m-1239 -41 c-3 -8 -6 -5 -6 6 -1 11 2 17 5
13 3 -3 4 -12 1 -19z m1209 -25 c-5 -6 -46 29 -46 39 0 4 11 -2 25 -14 14 -12
23 -23 21 -25z m-32 -8 c7 -20 -2 -42 -22 -50 -14 -5 -13 -3 2 14 11 12 14 21
7 26 -6 3 -11 10 -11 16 0 15 17 10 24 -6z m-77 -60 c8 -9 13 -19 10 -22 -6
-5 -37 21 -37 31 0 10 11 6 27 -9z m-1037 -74 c0 -5 3 -17 7 -27 4 -11 3 -15
-4 -11 -14 9 -24 47 -12 47 5 0 9 -4 9 -9z m784 -117 c4 -15 2 -32 -3 -37 -8
-8 -11 -6 -11 5 0 14 -5 15 -27 7 -42 -15 -70 -38 -57 -47 9 -5 8 -10 -1 -19
-10 -10 -15 -9 -19 4 -6 14 -8 14 -22 -3 -15 -19 -15 -19 -9 1 4 11 9 29 12
40 4 17 3 17 -6 5 -9 -12 -10 -8 -5 15 9 39 13 45 27 44 9 0 9 -2 0 -6 -15 -6
-17 -39 -3 -48 6 -4 24 1 42 9 17 9 37 16 45 16 7 0 13 9 13 20 0 29 17 25 24
-6z m-767 -36 c-3 -7 -5 -2 -5 12 0 14 2 19 5 13 2 -7 2 -19 0 -25z m379 -193
c-26 -19 -42 -19 -26 0 7 8 20 15 29 15 13 -1 13 -3 -3 -15z m-280 -74 c0 -22
-4 -34 -8 -28 -13 21 -8 67 7 67 2 0 2 -18 1 -39z m189 29 c-3 -5 -12 -10 -18
-10 -7 0 -6 4 3 10 19 12 23 12 15 0z m-138 -16 c-3 -3 -12 -4 -19 -1 -8 3 -5
6 6 6 11 1 17 -2 13 -5z m33 -14 c0 -5 -4 -10 -10 -10 -5 0 -10 5 -10 10 0 6
5 10 10 10 6 0 10 -4 10 -10z m-37 -17 c-7 -2 -19 -2 -25 0 -7 3 -2 5 12 5 14
0 19 -2 13 -5z"/>
<path d="M3354 1586 c-9 -37 -1 -70 18 -74 23 -4 32 32 16 68 -16 36 -26 38
-34 6z"/>
<path d="M3176 1555 c4 -9 1 -15 -7 -15 -10 0 -10 -3 -2 -11 6 -6 16 -8 22 -5
16 10 13 46 -4 46 -9 0 -12 -6 -9 -15z"/>
<path d="M3004 1515 c-3 -8 -3 -18 0 -24 3 -5 1 -11 -6 -13 -6 -2 -8 -10 -4
-16 9 -14 42 -16 51 -2 4 6 15 6 30 0 18 -7 25 -6 25 3 0 9 2 9 8 1 5 -9 11
-8 20 2 11 12 5 14 -38 14 -47 0 -50 2 -50 25 0 27 -27 35 -36 10z"/>
<path d="M3432 1470 c0 -14 2 -19 5 -12 2 6 2 18 0 25 -3 6 -5 1 -5 -13z"/>
<path d="M3360 1470 c0 -5 5 -10 11 -10 5 0 7 5 4 10 -3 6 -8 10 -11 10 -2 0
-4 -4 -4 -10z"/>
<path d="M2884 1463 c10 -11 36 -12 36 -2 0 5 -10 9 -22 9 -12 0 -18 -3 -14
-7z"/>
<path d="M3020 1286 c0 -8 5 -18 10 -21 6 -3 10 3 10 14 0 12 -4 21 -10 21 -5
0 -10 -6 -10 -14z"/>
<path d="M3680 1281 c0 -6 5 -13 10 -16 6 -3 10 1 10 9 0 9 -4 16 -10 16 -5 0
-10 -4 -10 -9z"/>
<path d="M3995 1000 c-8 -13 4 -32 16 -25 12 8 12 35 0 35 -6 0 -13 -4 -16
-10z"/>
<path d="M3180 651 c0 -6 5 -13 10 -16 6 -3 10 1 10 9 0 9 -4 16 -10 16 -5 0
-10 -4 -10 -9z"/>
<path d="M3187 536 c-4 -10 -5 -21 -2 -24 9 -9 17 6 13 25 -3 17 -4 17 -11 -1z"/>
<path d="M3676 502 c-3 -6 3 -12 15 -15 12 -3 19 -1 16 6 -5 15 -24 20 -31 9z"/>
<path d="M3391 324 c0 -11 3 -14 6 -6 3 7 2 16 -1 19 -3 4 -6 -2 -5 -13z"/>
<path d="M3360 290 c0 -5 7 -10 15 -10 8 0 15 5 15 10 0 6 -7 10 -15 10 -8 0
-15 -4 -15 -10z"/>
<path d="M3357 263 c-15 -15 -7 -43 13 -43 15 0 20 7 20 25 0 24 -18 34 -33
18z"/>
<path d="M1949 61 c7 -5 9 -10 5 -12 -5 -2 1 -13 12 -25 l22 -21 -2 24 c0 12
-5 23 -11 23 -5 0 -3 5 5 10 12 7 8 10 -15 10 -21 0 -26 -3 -16 -9z"/>
<path d="M2008 63 c6 -2 12 -14 13 -26 0 -12 3 -16 6 -9 2 6 10 9 16 5 8 -4 7
-1 -1 9 -10 13 -10 17 0 21 7 3 0 5 -17 5 -16 0 -24 -2 -17 -5z"/>
<path d="M2120 63 c0 -7 -7 -13 -15 -13 -8 0 -15 -9 -15 -21 0 -11 5 -17 10
-14 6 4 7 12 3 18 -5 8 -2 8 9 -1 16 -12 44 -12 65 1 6 4 14 1 16 -5 3 -7 6
-2 6 11 1 18 -2 21 -12 12 -8 -6 -17 -8 -20 -4 -4 3 -14 0 -24 -8 -9 -8 -14
-9 -11 -4 4 6 3 17 -3 25 -6 10 -9 11 -9 3z"/>
<path d="M2270 61 c0 -6 -13 -11 -30 -11 -30 0 -40 -13 -18 -26 7 -5 9 -2 4 7
-4 8 0 5 8 -5 15 -18 21 -15 17 8 -1 5 5 4 13 -4 13 -10 16 -10 16 1 0 12 2
12 9 1 11 -19 15 -19 34 -3 11 9 17 10 17 2 0 -6 5 -11 11 -11 5 0 7 6 3 12
-6 10 -5 10 8 1 14 -12 28 -8 28 8 0 11 -45 16 -68 8 -15 -6 -26 -3 -37 7 -8
9 -15 11 -15 5z"/>
<path d="M2540 45 c0 -16 6 -25 15 -25 9 0 15 9 15 25 0 16 -6 25 -15 25 -9 0
-15 -9 -15 -25z"/>
<path d="M2639 67 c0 -1 -2 -12 -5 -25 -3 -20 0 -22 24 -19 34 5 38 38 5 43
-13 2 -23 3 -24 1z m38 -29 c-3 -8 -6 -5 -6 6 -1 11 2 17 5 13 3 -3 4 -12 1
-19z"/>
<path d="M2701 48 c-1 -24 2 -26 37 -24 30 1 38 6 40 24 2 12 -1 22 -6 22 -6
0 -8 -10 -6 -22 l5 -23 -10 23 c-6 12 -15 22 -22 22 -6 0 -14 -10 -17 -22 -6
-23 -6 -23 -13 2 l-7 25 -1 -27z"/>
<path d="M2794 49 c0 -10 2 -16 5 -14 2 3 10 0 18 -7 17 -14 38 3 30 25 -8 22
-53 19 -53 -4z m36 -5 c0 -8 -5 -12 -10 -9 -6 4 -8 11 -5 16 9 14 15 11 15 -7z"/>
<path d="M2855 45 c0 -14 5 -23 10 -22 6 2 10 12 10 22 0 10 -4 20 -10 22 -5
2 -10 -8 -10 -22z"/>
<path d="M2885 45 c0 -18 5 -23 23 -22 12 1 28 9 33 17 9 13 10 12 5 -2 -6
-21 4 -23 23 -6 11 10 13 10 7 1 -9 -17 6 -17 23 -1 8 7 11 9 8 3 -3 -6 16
-10 49 -11 29 -1 53 1 52 5 -2 20 4 22 17 5 14 -18 14 -18 15 4 0 13 -4 21 -9
17 -5 -3 -12 -1 -15 4 -9 14 -55 10 -49 -5 2 -7 12 -10 21 -8 14 5 14 4 -1 -6
-14 -9 -23 -7 -46 9 -33 24 -45 27 -35 9 6 -10 4 -10 -7 0 -16 15 -33 16 -23
0 5 -8 3 -8 -7 -2 -8 5 -30 10 -49 10 -30 1 -35 -2 -35 -21z m35 -1 c0 -8 -5
-12 -10 -9 -6 4 -8 11 -5 16 9 14 15 11 15 -7z"/>
<path d="M2420 41 c0 -16 18 -22 23 -9 4 10 6 10 6 1 1 -18 31 -16 31 2 0 10
-10 15 -30 15 -16 0 -30 -4 -30 -9z"/>
<path d="M2580 34 c0 -8 5 -12 10 -9 6 3 10 10 10 16 0 5 -4 9 -10 9 -5 0 -10
-7 -10 -16z"/>
</g>
</svg>
